<svg height="512pt" viewBox="0 0 512 512" width="512pt" xmlns="http://www.w3.org/2000/svg"><path d="m256 0c-140.699219 0-256 115.300781-256 256s115.300781 256 256 256 256-115.300781 256-256-115.300781-256-256-256zm0 0" fill="#fdbf00"/><path d="m256 61c-107.402344 0-195 87.597656-195 195 0 107.398438 87.597656 195 195 195s195-87.601562 195-195c0-107.402344-87.597656-195-195-195zm0 0" fill="#ffda2d"/><path d="m331 331v30h-154.800781l28.5-100.5-50.699219 10.199219-6-29.398438 66-13.199219 27.601562-96.300781 28.796876 8.398438-14.398438 50.699219-8.699219 30.601562 8.699219-1.800781 42-8.398438 6 29.398438-48 9.601562-18 3.597657-22.199219 77.101562zm0 0" fill="#ff9100"/><path d="m512 256c0 140.699219-115.300781 256-256 256v-512c140.699219 0 256 115.300781 256 256zm0 0" fill="#ff9100"/><path d="m451 256c0 107.398438-87.597656 195-195 195v-390c107.402344 0 195 87.597656 195 195zm0 0" fill="#fdbf00"/><path d="m270.398438 140.199219-14.398438 50.699219v-54.898438zm0 0" fill="#ff9100"/><g fill="#ff641a"><path d="m304 240.699219-48 9.601562v-30.601562l42-8.398438zm0 0"/><path d="m256 331h75v30h-75zm0 0"/></g></svg>