<svg id="Capa_1" enable-background="new 0 0 512 512" height="512" viewBox="0 0 512 512" width="512" xmlns="http://www.w3.org/2000/svg"><g><path d="m256 0c-140.7 0-256 115.3-256 256s115.3 256 256 256 256-115.3 256-256-115.3-256-256-256z" fill="#ff9100"/><path d="m512 256c0 140.7-115.3 256-256 256v-512c140.7 0 256 115.3 256 256z" fill="#ff641a"/><path d="m436 331-38.101 15 22.2 15c-34.799 54-95.099 90-164.099 90s-129.3-36-164.099-90l22.2-15-38.101-15c-9.6-23.101-15-48.3-15-75 0-107.401 87.599-195 195-195s195 87.599 195 195c0 26.7-5.4 51.899-15 75z" fill="#fdbf00"/><path d="m436 331-38.101 15 22.2 15c-34.799 54-95.099 90-164.099 90v-390c107.401 0 195 87.599 195 195 0 26.7-5.4 51.899-15 75z" fill="#ff9100"/><path d="m436 331c-4.501 10.499-9.901 20.4-15.901 30h-89.099v-120l-75 99.899-75-99.899v120h-89.099c-6-9.6-11.4-19.501-15.901-30h75v-180l105 140.099 105-140.099v180z" fill="#64e1dc"/><path d="m436 331c-4.501 10.499-9.901 20.4-15.901 30h-89.099v-120l-75 99.899v-49.799l105-140.1v180z" fill="#00c8c8"/></g></svg>