<?xml version="1.0" encoding="iso-8859-1"?><!DOCTYPE svg PUBLIC "-//W3C//DTD SVG 1.1//EN" "http://www.w3.org/Graphics/SVG/1.1/DTD/svg11.dtd"><svg viewBox="0 0 512 512" xmlns="http://www.w3.org/2000/svg" xmlns:xlink="http://www.w3.org/1999/xlink"><style>:root>svg{display:none}:root>svg:target{display:block}</style><svg viewBox="0 0 512 512" id="bitcoin" xmlns="http://www.w3.org/2000/svg"><circle cx="256" cy="256" r="256" fill="#ffdb0c"/><g fill="#fbbf00"><path d="M512 256c0 141.385-114.615 256-256 256V0c141.385 0 256 114.615 256 256z"/><path d="M256 448.266c-106.016 0-192.266-86.25-192.266-192.266S149.984 63.734 256 63.734 448.266 149.984 448.266 256 362.016 448.266 256 448.266z"/></g><path d="M256 448.266V63.735c106.016 0 192.266 86.25 192.266 192.266S362.016 448.266 256 448.266z" fill="#ffa900"/><path d="M314.03 256c10.29-9.841 16.718-23.687 16.718-39.016 0-23.65-15.285-43.785-36.49-51.081v-21.688h-30v18.754h-15.612v-18.754h-30v18.754h-23.719v186.062h23.719v18.754h30v-18.754h15.612v18.754h30v-21.688c21.205-7.296 36.49-27.431 36.49-51.081.001-15.329-6.428-29.175-16.718-39.016zm-89.103-63.031h51.806c13.242 0 24.016 10.773 24.016 24.016S289.975 241 276.733 241h-51.806v-48.031zm51.806 126.062h-51.806V271h51.806c13.242 0 24.016 10.773 24.016 24.016s-10.774 24.015-24.016 24.015z" fill="#f80"/><path d="M330.749 216.984c0-23.65-15.285-43.785-36.49-51.081v-21.688h-30v18.754H256v30h20.733c13.242 0 24.016 10.773 24.016 24.016S289.975 241 276.733 241H256v30h20.733c13.242 0 24.016 10.773 24.016 24.016s-10.773 24.016-24.016 24.016H256v30h8.258v18.754h30v-21.688c21.205-7.296 36.49-27.431 36.49-51.081 0-15.328-6.429-29.175-16.718-39.016 10.29-9.842 16.719-23.688 16.719-39.017z" fill="#e47700"/></svg><svg viewBox="0 0 480.167 480.167" id="blockchain" xmlns="http://www.w3.org/2000/svg"><g fill="#dbdbdb"><path d="M224.236 47.434l15.948-1.293 9.957 122.765-15.948 1.293-9.957-122.765zM69.965 112.439l9.828-12.626 110.873 86.306-9.828 12.626-110.873-86.306zM68.218 76.608l143.315-50.717 5.335 15.076L73.553 91.684l-5.335-15.076zM242.135 45.359l6.816-14.484 181.333 85.334-6.816 14.484-181.333-85.334z"/><path d="M78.825 104.715l1.447-15.934 331.69 30.128-1.447 15.934-331.69-30.128zM432.914 146.893l15.926-1.537 9.331 96.662-15.926 1.537-9.331-96.662zM311.07 247.113l1.29-15.956 127.831 10.337-1.29 15.956-127.831-10.337zM408.519 393.316l35.313-126.674 15.412 4.296-35.313 126.674-15.412-4.296zM258.45 437.171l142.365-38.074 4.134 15.457-142.365 38.074-4.134-15.457z"/><path d="M108.809 412.843l321.144-159.871 7.134 14.331-321.144 159.871-7.134-14.331zM32.85 315.245l14.729-6.249 46.666 109.998-14.729 6.249L32.85 315.245zM25.573 284.416l22.702-173.327 15.864 2.078-22.702 173.326-15.864-2.077zM47.845 277.167l129.118-43.973 5.156 15.138-129.118 43.973-5.156-15.138zM102.257 447.435l1.175-15.957 126.665 9.329-1.175 15.957-126.665-9.329z"/><path d="M242.782 433.246l175.017-281.125 13.576 8.452-175.017 281.125-13.576-8.452zM43.475 310.528l9.548-12.839 184.666 137.336-9.548 12.839L43.475 310.528zM29.202 281.923l184.636-242.02 12.721 9.705-184.637 242.02-12.72-9.705z"/><path d="M284.796 294.912l10.943-11.673 109.94 103.064-10.943 11.673-109.94-103.064zM89.082 414.012l102.694-139.977 12.907 9.469-102.694 139.978-12.907-9.47zM296.987 194.059l111.23-58.56 7.454 14.158-111.23 58.56-7.454-14.158z"/></g><circle cx="240.211" cy="240.123" r="72" fill="#fdb62f"/><path d="M189.299 291.035c28.118 28.118 73.706 28.118 101.824 0s28.118-73.706 0-101.824L189.299 291.035z" fill="#ffa12e"/><path d="M272.211 224.123c0-13.255-10.745-24-24-24v-8h-16v8h-16a8 8 0 00-8 8v64a8 8 0 008 8h16v8h16v-8c13.255-.009 23.993-10.762 23.983-24.017a24.004 24.004 0 00-6.111-15.984 23.886 23.886 0 006.128-15.999zm-24 40h-24v-16h24a8 8 0 010 16zm0-32h-24v-16h24a8 8 0 010 16z" fill="#f46b27"/><g fill="#4398d1"><circle cx="232.211" cy="32.123" r="24"/><circle cx="32.211" cy="296.123" r="24"/></g><g fill="#87ced9"><circle cx="240.211" cy="448.123" r="24"/><circle cx="432.211" cy="136.123" r="24"/><circle cx="64.211" cy="96.123" r="24"/></g><circle cx="416.211" cy="408.123" r="24" fill="#4398d1"/><circle cx="448.211" cy="256.123" r="24" fill="#87ced9"/><circle cx="96.211" cy="432.123" r="24" fill="#4398d1"/><path d="M216.211 280.123h16v8h16v-8c13.255-.009 23.993-10.762 23.983-24.017a24.004 24.004 0 00-6.111-15.984c8.837-9.88 7.991-25.052-1.889-33.889a23.999 23.999 0 00-15.983-6.111v-8h-16v8h-16a8 8 0 00-8 8v64a8 8 0 008 8.001zm8-64h24a8 8 0 010 16h-24v-16zm0 32h24a8 8 0 010 16h-24v-16z"/><path d="M455.603 225.067l-5.664-62.336c14.695-9.818 18.649-29.69 8.831-44.385a31.998 31.998 0 00-26.559-14.223 31.609 31.609 0 00-15.744 4.312L263.579 38.371c3.523-17.273-7.625-34.132-24.898-37.655s-34.132 7.625-37.655 24.898a31.96 31.96 0 00-.52 3.565L83.26 70.563a31.68 31.68 0 00-19.048-6.44c-17.673.046-31.962 14.411-31.916 32.084a31.998 31.998 0 0014.38 26.628L27.348 264.619C9.901 267.147-2.193 283.339.334 300.786s18.72 29.541 36.167 27.014c.541-.078 1.079-.17 1.615-.276l35.248 82.264c-12.387 12.556-12.249 32.777.307 45.163 12.556 12.387 32.777 12.249 45.163-.307a31.9 31.9 0 004.481-5.72l85.704 6.12c3.78 17.205 20.792 28.089 37.997 24.309 13.935-3.061 24.142-15.004 24.995-29.245l114.536-30.136c6.52 16.427 25.122 24.457 41.548 17.938 16.427-6.52 24.457-25.122 17.938-41.548a32.001 32.001 0 00-17.63-17.814l26.024-91.072c17.302-3.425 28.551-20.228 25.126-37.53a31.936 31.936 0 00-23.95-24.87v-.009zm-16 .392a31.921 31.921 0 00-18.744 14.4l-36.856-2.952 43.064-69.272c1.699.299 3.419.462 5.144.488.728 0 1.408-.168 2.128-.216l5.264 57.552zm-39.784 155.328l-66.456-62.264 88.512-44.256a32 32 0 0016.24 12.104l-25.76 90.176a31.622 31.622 0 00-12.536 4.24zm-15.2 23.2l-115.608 30.392a31.934 31.934 0 00-3.944-6.184l59.632-95.92 63.936 59.944a31.5 31.5 0 00-4 11.736l-.016.032zm-163.12 18.312l-38.608-28.576 122.92-61.472-53.6 86.272a31.501 31.501 0 00-30.712 3.76v.016zm-103.92-13.784a31.608 31.608 0 00-3.496-2.88l20.688-27.592 17.6 13.032-34.792 17.44zm26.768-43.24l46.64-62.176c29.708 23.387 71.768 22.651 100.64-1.76l14.016 13.144-137.2 68.6-24.096-17.808zm81.6-301.752l2.952 38.4-39.2-3.648 28.68-37.408a31.147 31.147 0 007.608 2.624l-.04.032zm-55.088 33.024l-75.392-7.008a31.784 31.784 0 00-1.768-5.672l109.392-38.632a31.508 31.508 0 003.048 5.32l-35.28 45.992zm-76.248 8.952l64.752 6.024-24.112 31.496-42.4-32.952a31.954 31.954 0 001.76-4.568zm83.568 7.776l52 4.8 3.256 42.36a79.61 79.61 0 00-48.056 21.552l-37.512-29.184 30.312-39.528zm238.328 145.752l-67.2 33.6 25.144-40.448 41.808 3.344c0 .208-.064.4-.064.608.017.984.225 1.928.312 2.896zm-94.528 47.264l-1.056.536-18.136-17a79.547 79.547 0 0017.032-42.024l36.696 2.928-34.536 55.56zm-145.768-66.168c0-35.346 28.654-64 64-64s64 28.654 64 64-28.654 64-64 64c-35.329-.04-63.96-28.671-64-64zm143.552-8.384a79.205 79.205 0 00-8.08-27.352l94.528-49.752a31.795 31.795 0 006.096 6.344l-46.28 74.464-46.264-3.704zm80.8-92.208l-97.472 51.304a79.885 79.885 0 00-53.6-30.128l-3.2-41.096 154.088 14.336c-.056.728-.224 1.432-.224 2.176.072 1.142.206 2.28.4 3.408h.008zm-225.68 54.576a79.437 79.437 0 00-14.672 45.584L55.683 274.523c-.208-.224-.368-.48-.576-.696l83.04-108.312 36.736 28.592zM63.307 288.859l98.504-32.8a79.667 79.667 0 0017.552 35.904l-47.864 63.816-68.688-50.808a31.467 31.467 0 001.4-8.848 31.921 31.921 0 00-.904-7.264zm384.904-152.736c0 8.837-7.163 16-16 16s-16-7.163-16-16 7.163-16 16-16 16 7.163 16 16zm-50.023-18.464l-153.08-14.24-3.2-40.976a31.77 31.77 0 0014.544-9.72l141.736 64.936zM232.212 16.123c8.837 0 16 7.163 16 16s-7.163 16-16 16-16-7.163-16-16 7.163-16 16-16zm-168 64c8.837 0 16 7.163 16 16s-7.163 16-16 16-16-7.163-16-16 7.163-16 16-16zm0 48a31.755 31.755 0 0018.328-5.84l42.976 33.424-81.712 106.584 18.328-134.4c.704.064 1.367.232 2.08.232zm-48 168c0-8.837 7.163-16 16-16s16 7.163 16 16-7.163 16-16 16-16-7.164-16-16zm38.479 22.728l67.2 49.68-23.832 31.776c-.632 0-1.224-.184-1.864-.184a31.413 31.413 0 00-8.968 1.44l-34.672-80.944c.712-.592 1.48-1.112 2.136-1.768zm41.521 129.272c-8.837 0-16-7.163-16-16s7.163-16 16-16 16 7.163 16 16-7.164 16-16 16zm30.192-26.152l40.44-20.248 44.464 32.864a31.88 31.88 0 00-1.6 4.456l-81.6-5.824c0-.384.112-.736.112-1.12a31.475 31.475 0 00-1.816-10.128zm113.807 42.152c-8.837 0-16-7.163-16-16s7.163-16 16-16 16 7.163 16 16-7.163 16-16 16zm176-40c-8.837 0-16-7.163-16-16s7.163-16 16-16 16 7.163 16 16-7.163 16-16 16zm32-152c-8.837 0-16-7.163-16-16s7.163-16 16-16 16 7.163 16 16c0 8.836-7.163 16-16 16z"/></svg><svg viewBox="0 0 512 512" id="etherium" xmlns="http://www.w3.org/2000/svg"><path d="M256 91c45.492 0 86.742 18.504 116.617 48.383L436 106l.23-30.23C390.055 29.598 326.305 0 256 0l-30 43.5zm0 0" fill="#fdbf00"/><path d="M256 91V0C185.695 0 121.945 29.598 75.77 75.77L76 136l63.383 3.383C169.258 109.503 210.508 91 256 91zm0 0" fill="#ffda2d"/><path d="M139.383 139.383L75.77 75.77C29.598 121.945 0 185.695 0 256l53.5 30L91 256c0-45.492 18.504-86.742 48.383-116.617zm0 0" fill="#fdbf00"/><path d="M91 256H0c0 70.305 29.598 134.055 75.77 180.23L136 406l3.383-33.383C109.503 342.742 91 301.492 91 256zm0 0" fill="#ffda2d"/><path d="M256 421c-45.492 0-86.742-18.504-116.617-48.383L75.77 436.23C121.945 482.402 185.695 512 256 512l30-38.75zm0 0" fill="#fdbf00"/><path d="M256 512c70.305 0 134.055-29.598 180.23-75.77l-23.98-53.98-39.633-9.633C342.742 402.497 301.492 421 256 421zm0 0" fill="#ff9100"/><path d="M512 256l-43.5-30-47.5 30c0 45.492-18.504 86.742-48.383 116.617l63.613 63.613C482.402 390.055 512 326.305 512 256zm0 0" fill="#fdbf00"/><path d="M421 256h91c0-70.305-29.598-134.055-75.77-180.23l-63.613 63.613C402.497 169.258 421 210.508 421 256zm0 0" fill="#ff9100"/><path d="M256 76c-99.3 0-180 80.7-180 180s80.7 180 180 180 180-80.7 180-180S355.3 76 256 76zm0 0" fill="#ff9100"/><path d="M436 256c0 99.3-80.7 180-180 180V76c99.3 0 180 80.7 180 180zm0 0" fill="#dd7b05"/><path d="M346 256c0 3-.902 6-2.7 8.7l-75 105c-3 3.898-7.5 6.3-12.3 6.3s-9.3-2.402-12.3-6.3l-75-105c-1.798-2.7-2.7-5.7-2.7-8.7zm0 0" fill="#fdbf00"/><path d="M346 256c0 3-.902 6-2.7 8.7l-75 105c-3 3.898-7.5 6.3-12.3 6.3V256zm0 0" fill="#ff9100"/><path d="M346 256l-83.402 43.5c-2.098.898-4.2 1.5-6.598 1.5s-4.5-.602-6.598-1.5L166 256c0-3 .902-6 2.7-8.7l75-105c3-3.902 7.5-6 12.3-6s9.3 2.098 12.3 6l75 105c1.798 2.7 2.7 5.7 2.7 8.7zm0 0" fill="#ffda2d"/><path d="M346 256l-83.402 43.5c-2.098.898-4.2 1.5-6.598 1.5V136.3c4.8 0 9.3 2.098 12.3 6l75 105c1.798 2.7 2.7 5.7 2.7 8.7zm0 0" fill="#fdbf00"/></svg><svg viewBox="0 0 512.095 512.095" id="forbidden" xmlns="http://www.w3.org/2000/svg"><path d="M256.047 448.361c-41.589 0-80.092-13.204-111.552-35.644l111.6-111.6 10-45.022-10-45.111L99.421 367.658c-22.466-31.471-35.687-69.996-35.687-111.61 0-106.212 86.102-192.313 192.313-192.313h.047l10-34.687-10-29.047-.047-.001C114.636 0 0 114.636 0 256.047s114.636 256.047 256.047 256.047l.047-.001 10-33.047-10-30.687a.708.708 0 01-.047.002z" fill="#ff6c6c"/><path d="M512.095 256.047c0-141.395-114.611-256.021-256-256.047v63.734c41.596.01 80.104 13.229 111.563 35.686L256.095 210.984v90.133l156.622-156.622c22.441 31.46 35.644 69.964 35.644 111.552 0 106.196-86.076 192.287-192.266 192.313v63.734c141.389-.026 256-114.652 256-256.047z" fill="#c83c50"/></svg><svg viewBox="0 0 512 512" id="home" xmlns="http://www.w3.org/2000/svg"><path d="M469.36 165.93V461H42.64V165.93L256 40.33z" fill="#e6f3ff"/><path d="M469.36 165.93V461H256V40.33z" fill="#bbe4f2"/><path d="M94 227.435h125.429V461H94z" fill="#ffcf67"/><path d="M292.571 227.435h121.762V312H292.571z" fill="#28abf9"/><path d="M0 438.86h512V512H0z" fill="#13cffe"/><path d="M256 438.86h256V512H256z" fill="#28abf9"/><path d="M73.143 0h73.143v108.038H73.143z" fill="#13cffe"/><path d="M512 147.8v73.31L256 73.31 0 221.11V147.8L256 0z" fill="#393e9f"/><path d="M512 147.8v73.31L256 73.31V0z" fill="#340d66"/></svg><svg viewBox="0 0 512 512" id="house" xmlns="http://www.w3.org/2000/svg"><path fill="#f05540" d="M382.933 73.6H441.6V176h-58.667z"/><path fill="#f3705a" d="M360.533 21.333H464V76.8H360.533z"/><path d="M44.8 276.267V512h418.133V276.267L253.866 67.2C172.8 149.333 126.933 195.2 44.8 276.267z" fill="#ffd15c"/><path d="M464 276.267L254.933 67.2c-41.6 40.533-73.6 72.533-105.6 104.533L44.8 276.266v48l209.067-209.067 209.067 209.067v6.4-54.4H464z" fill="#f7b64c"/><path d="M216.533 512H90.667V388.267c0-35.2 28.8-62.933 62.933-62.933 35.2 0 62.933 28.8 62.933 62.933V512z" fill="#415a6b"/><path fill="#344a5e" d="M253.867 325.333h164.267v144H253.867z"/><g fill="#8ad7f8"><path d="M270.933 342.4h56.533v109.867h-56.533zM344.533 342.4h56.533v109.867h-56.533z"/></g><path d="M502.4 232.533L279.467 9.6c-12.8-12.8-35.2-12.8-48 0L9.6 232.533c-12.8 12.8-12.8 35.2 0 48 12.8 12.8 35.2 12.8 48 0L256 82.133l198.4 198.4c12.8 12.8 35.2 12.8 48 0 12.8-13.866 12.8-35.2 0-48z" fill="#f3705a"/></svg><svg viewBox="0 0 512 512" id="info" xmlns="http://www.w3.org/2000/svg"><path d="M256 512c-68.38 0-132.667-26.629-181.02-74.98C26.629 388.667 0 324.38 0 256S26.629 123.333 74.98 74.98C123.333 26.629 187.62 0 256 0s132.667 26.629 181.02 74.98C485.371 123.333 512 187.62 512 256s-26.629 132.667-74.98 181.02C388.667 485.371 324.38 512 256 512z" fill="#00c1fd"/><path d="M437.02 74.98C388.667 26.629 324.38 0 256 0v512c68.38 0 132.667-26.629 181.02-74.98C485.371 388.667 512 324.38 512 256s-26.629-132.667-74.98-181.02z" fill="#08a8ee"/><g fill="#e4f7ff"><path d="M301 371V221H191v30h20v120h-21v30h130v-30zM256 191c24.813 0 45-20.187 45-45s-20.187-45-45-45-45 20.187-45 45 20.187 45 45 45z"/></g><g fill="#cbedfd"><path d="M256 191c24.813 0 45-20.187 45-45s-20.187-45-45-45v90zM301 371V221h-45v180h64v-30z"/></g></svg><svg viewBox="0 0 512 512" id="internet" xmlns="http://www.w3.org/2000/svg"><path d="M437.02 74.98C388.668 26.63 324.379 0 256 0S123.332 26.629 74.98 74.98C26.63 123.332 0 187.621 0 256s26.629 132.668 74.98 181.02C123.332 485.37 187.621 512 256 512s132.668-26.629 181.02-74.98C485.37 388.668 512 324.379 512 256s-26.629-132.668-74.98-181.02zm0 0" fill="#00d0d9"/><path d="M437.02 74.98C388.668 26.63 324.379 0 256 0v512c68.379 0 132.668-26.629 181.02-74.98C485.37 388.668 512 324.379 512 256s-26.629-132.668-74.98-181.02zm0 0" fill="#008eab"/><path d="M511.555 241H381.55c-.852-32.652-4.457-64.363-10.512-94.316h116.152c.149 0 .29-.02.434-.024a253.537 253.537 0 00-16.773-29.976H364.004c-11.172-41.649-27.29-78.977-47.371-109.485a256.761 256.761 0 00-42.29-6.547c18.509 21.47 34.618 49.47 47.427 82.72 4.132 10.73 7.851 21.858 11.156 33.312H179.074c3.301-11.454 7.02-22.579 11.156-33.313 12.81-33.25 28.918-61.25 47.426-82.719A256.697 256.697 0 00195.367 7.2c-20.082 30.512-36.199 67.836-47.37 109.485H41.147a253.537 253.537 0 00-16.773 29.976c.145.004.285.024.434.024H140.96c-6.055 29.953-9.66 61.664-10.512 94.316H.445C.16 245.977 0 250.977 0 256s.16 10.023.445 15H130.45c.852 32.652 4.457 64.363 10.512 94.316H24.809c-.149 0-.29.02-.434.024a253.537 253.537 0 0016.773 29.976H148c11.172 41.649 27.285 78.977 47.371 109.485a256.65 256.65 0 0042.285 6.547c-18.508-21.47-34.613-49.47-47.426-82.72-4.132-10.73-7.851-21.858-11.156-33.312H332.93c-3.305 11.454-7.024 22.579-11.157 33.313-12.812 33.25-28.918 61.25-47.425 82.719a256.237 256.237 0 0042.285-6.547c20.086-30.512 36.203-67.836 47.37-109.485h106.852a253.537 253.537 0 0016.774-29.976c-.145-.004-.285-.024-.434-.024H371.04c6.055-29.953 9.66-61.664 10.512-94.316h130.004c.285-4.977.445-9.977.445-15s-.16-10.023-.445-15zM340.449 365.316H171.551c-6.457-30.007-10.211-61.765-11.094-94.316h191.082c-.879 32.555-4.633 64.309-11.09 94.316zM160.457 241c.883-32.555 4.637-64.309 11.094-94.316h168.898c6.457 30.007 10.211 61.765 11.094 94.316zm0 0" fill="#f2f0ff"/><path d="M511.555 271c.285-4.977.445-9.977.445-15s-.16-10.023-.445-15H381.55c-.852-32.652-4.457-64.363-10.512-94.316h116.152c.149 0 .29-.02.434-.024a253.537 253.537 0 00-16.773-29.976H364.004c-11.172-41.649-27.29-78.977-47.371-109.485a256.761 256.761 0 00-42.29-6.547c18.509 21.47 34.618 49.47 47.427 82.72 4.132 10.73 7.851 21.858 11.156 33.312H256v30h84.45c6.456 30.011 10.21 61.765 11.093 94.316H256v30h95.543c-.883 32.555-4.637 64.309-11.094 94.316H256v30h76.926c-3.301 11.454-7.02 22.582-11.156 33.317-12.81 33.25-28.918 61.246-47.426 82.719a256.697 256.697 0 0042.289-6.547c20.082-30.512 36.199-67.84 47.37-109.489h106.849a253.227 253.227 0 0016.773-29.976c-.145-.004-.285-.024-.43-.024H371.04c6.055-29.949 9.66-61.66 10.512-94.312h130.004zm0 0" fill="#c3bce8"/></svg><svg viewBox="0 0 512 512" id="litecoin" xmlns="http://www.w3.org/2000/svg"><path d="M256 0C115.3 0 0 115.3 0 256s115.3 256 256 256 256-115.3 256-256S396.7 0 256 0zm0 0" fill="#fdbf00"/><path d="M256 61C148.598 61 61 148.598 61 256c0 107.398 87.598 195 195 195s195-87.602 195-195c0-107.402-87.598-195-195-195zm0 0" fill="#ffda2d"/><path d="M331 331v30H176.2l28.5-100.5-50.7 10.2-6-29.4 66-13.198 27.602-96.301 28.796 8.398L256 190.9l-8.7 30.601 8.7-1.8 42-8.4 6 29.4-48 9.6-18 3.598L215.8 331zm0 0" fill="#ff9100"/><path d="M512 256c0 140.7-115.3 256-256 256V0c140.7 0 256 115.3 256 256zm0 0" fill="#ff9100"/><path d="M451 256c0 107.398-87.598 195-195 195V61c107.402 0 195 87.598 195 195zm0 0" fill="#fdbf00"/><path d="M270.398 140.2L256 190.897V136zm0 0" fill="#ff9100"/><g fill="#ff641a"><path d="M304 240.7l-48 9.6v-30.6l42-8.4zm0 0M256 331h75v30h-75zm0 0"/></g></svg><svg viewBox="0 0 512 512" id="monero" xmlns="http://www.w3.org/2000/svg"><path d="M256 0C115.3 0 0 115.3 0 256s115.3 256 256 256 256-115.3 256-256S396.7 0 256 0z" fill="#ff9100"/><path d="M512 256c0 140.7-115.3 256-256 256V0c140.7 0 256 115.3 256 256z" fill="#ff641a"/><path d="M436 331l-38.101 15 22.2 15C385.3 415 325 451 256 451s-129.3-36-164.099-90l22.2-15L76 331c-9.6-23.101-15-48.3-15-75 0-107.401 87.599-195 195-195s195 87.599 195 195c0 26.7-5.4 51.899-15 75z" fill="#fdbf00"/><path d="M436 331l-38.101 15 22.2 15C385.3 415 325 451 256 451V61c107.401 0 195 87.599 195 195 0 26.7-5.4 51.899-15 75z" fill="#ff9100"/><path d="M436 331c-4.501 10.499-9.901 20.4-15.901 30H331V241l-75 99.899L181 241v120H91.901c-6-9.6-11.4-19.501-15.901-30h75V151l105 140.099L361 151v180z" fill="#64e1dc"/><path d="M436 331c-4.501 10.499-9.901 20.4-15.901 30H331V241l-75 99.899V291.1L361 151v180z" fill="#00c8c8"/></svg><svg viewBox="0 0 455.731 455.731" id="telegram" xmlns="http://www.w3.org/2000/svg"><path fill="#61a8de" d="M0 0h455.731v455.731H0z"/><path d="M358.844 100.6L54.091 219.359c-9.871 3.847-9.273 18.012.888 21.012l77.441 22.868 28.901 91.706c3.019 9.579 15.158 12.483 22.185 5.308l40.039-40.882 78.56 57.665c9.614 7.057 23.306 1.814 25.747-9.859l52.031-248.76c2.548-12.185-9.44-22.337-21.039-17.817zm-38.208 55.206L179.08 280.984a7.603 7.603 0 00-2.519 4.847l-5.45 48.448c-.178 1.58-2.389 1.789-2.861.271l-22.423-72.253a7.605 7.605 0 013.255-8.717l167.163-103.676c3.844-2.386 7.78 2.906 4.391 5.902z" fill="#fff"/></svg></svg>